G04 #@! TF.FileFunction,Legend,Bot*
%FSLAX46Y46*%
G04 Gerber Fmt 4.6, Leading zero omitted, Abs format (unit mm)*
G04 Created by KiCad (PCBNEW 4.0.6) date Fri Sep  8 15:05:28 2017*
%MOMM*%
%LPD*%
G01*
G04 APERTURE LIST*
%ADD10C,0.100000*%
%ADD11C,0.150000*%
%ADD12C,0.120000*%
G04 APERTURE END LIST*
D10*
D11*
X206528571Y-100819048D02*
X206576190Y-100961905D01*
X206623810Y-101009524D01*
X206719048Y-101057143D01*
X206861905Y-101057143D01*
X206957143Y-101009524D01*
X207004762Y-100961905D01*
X207052381Y-100866667D01*
X207052381Y-100485714D01*
X206052381Y-100485714D01*
X206052381Y-100819048D01*
X206100000Y-100914286D01*
X206147619Y-100961905D01*
X206242857Y-101009524D01*
X206338095Y-101009524D01*
X206433333Y-100961905D01*
X206480952Y-100914286D01*
X206528571Y-100819048D01*
X206528571Y-100485714D01*
X206766667Y-101438095D02*
X206766667Y-101914286D01*
X207052381Y-101342857D02*
X206052381Y-101676190D01*
X207052381Y-102009524D01*
X206052381Y-102342857D02*
X206861905Y-102342857D01*
X206957143Y-102390476D01*
X207004762Y-102438095D01*
X207052381Y-102533333D01*
X207052381Y-102723810D01*
X207004762Y-102819048D01*
X206957143Y-102866667D01*
X206861905Y-102914286D01*
X206052381Y-102914286D01*
X207052381Y-103390476D02*
X206052381Y-103390476D01*
X206052381Y-103628571D01*
X206100000Y-103771429D01*
X206195238Y-103866667D01*
X206290476Y-103914286D01*
X206480952Y-103961905D01*
X206623810Y-103961905D01*
X206814286Y-103914286D01*
X206909524Y-103866667D01*
X207004762Y-103771429D01*
X207052381Y-103628571D01*
X207052381Y-103390476D01*
X229652381Y-110852381D02*
X229985715Y-110376190D01*
X230223810Y-110852381D02*
X230223810Y-109852381D01*
X229842857Y-109852381D01*
X229747619Y-109900000D01*
X229700000Y-109947619D01*
X229652381Y-110042857D01*
X229652381Y-110185714D01*
X229700000Y-110280952D01*
X229747619Y-110328571D01*
X229842857Y-110376190D01*
X230223810Y-110376190D01*
X229223810Y-110328571D02*
X228890476Y-110328571D01*
X228747619Y-110852381D02*
X229223810Y-110852381D01*
X229223810Y-109852381D01*
X228747619Y-109852381D01*
X228366667Y-110804762D02*
X228223810Y-110852381D01*
X227985714Y-110852381D01*
X227890476Y-110804762D01*
X227842857Y-110757143D01*
X227795238Y-110661905D01*
X227795238Y-110566667D01*
X227842857Y-110471429D01*
X227890476Y-110423810D01*
X227985714Y-110376190D01*
X228176191Y-110328571D01*
X228271429Y-110280952D01*
X228319048Y-110233333D01*
X228366667Y-110138095D01*
X228366667Y-110042857D01*
X228319048Y-109947619D01*
X228271429Y-109900000D01*
X228176191Y-109852381D01*
X227938095Y-109852381D01*
X227795238Y-109900000D01*
X227366667Y-110328571D02*
X227033333Y-110328571D01*
X226890476Y-110852381D02*
X227366667Y-110852381D01*
X227366667Y-109852381D01*
X226890476Y-109852381D01*
X226604762Y-109852381D02*
X226033333Y-109852381D01*
X226319048Y-110852381D02*
X226319048Y-109852381D01*
D12*
X226800000Y-116950000D02*
X226800000Y-116250000D01*
X225600000Y-116250000D02*
X225600000Y-116950000D01*
X244250000Y-103200000D02*
X244950000Y-103200000D01*
X244950000Y-102000000D02*
X244250000Y-102000000D01*
X241950000Y-102000000D02*
X241250000Y-102000000D01*
X241250000Y-103200000D02*
X241950000Y-103200000D01*
X226110000Y-109270000D02*
X226110000Y-106730000D01*
X227890000Y-106730000D02*
X227890000Y-109270000D01*
X227890000Y-106730000D02*
X226110000Y-106730000D01*
X226110000Y-109270000D02*
X227890000Y-109270000D01*
X207510000Y-103370000D02*
X207510000Y-100830000D01*
X209290000Y-100830000D02*
X209290000Y-103370000D01*
X209290000Y-100830000D02*
X207510000Y-100830000D01*
X207510000Y-103370000D02*
X209290000Y-103370000D01*
X228320000Y-107300000D02*
X228320000Y-108300000D01*
X229680000Y-108300000D02*
X229680000Y-107300000D01*
X208200000Y-104120000D02*
X207200000Y-104120000D01*
X207200000Y-105480000D02*
X208200000Y-105480000D01*
D11*
X224400000Y-100000000D02*
X224400000Y-94300000D01*
X224400000Y-94300000D02*
X211200000Y-94300000D01*
X211200000Y-94300000D02*
X211200000Y-100000000D01*
X224400000Y-103400000D02*
X224400000Y-100000000D01*
X224400000Y-100000000D02*
X211200000Y-100000000D01*
X211200000Y-100000000D02*
X211200000Y-103400000D01*
X212900000Y-120100000D02*
X211200000Y-120100000D01*
X211200000Y-120100000D02*
X211200000Y-118000000D01*
X224400000Y-118000000D02*
X224400000Y-120100000D01*
X224400000Y-120100000D02*
X222600000Y-120100000D01*
X240875000Y-105750000D02*
G75*
G03X240875000Y-105750000I-75000J0D01*
G01*
X241300000Y-106250000D02*
X241300000Y-103750000D01*
X241300000Y-103750000D02*
X244300000Y-103750000D01*
X244300000Y-103750000D02*
X244300000Y-106250000D01*
X244300000Y-106250000D02*
X241300000Y-106250000D01*
X228066666Y-117457143D02*
X228114285Y-117504762D01*
X228257142Y-117552381D01*
X228352380Y-117552381D01*
X228495238Y-117504762D01*
X228590476Y-117409524D01*
X228638095Y-117314286D01*
X228685714Y-117123810D01*
X228685714Y-116980952D01*
X228638095Y-116790476D01*
X228590476Y-116695238D01*
X228495238Y-116600000D01*
X228352380Y-116552381D01*
X228257142Y-116552381D01*
X228114285Y-116600000D01*
X228066666Y-116647619D01*
X227161904Y-116552381D02*
X227638095Y-116552381D01*
X227685714Y-117028571D01*
X227638095Y-116980952D01*
X227542857Y-116933333D01*
X227304761Y-116933333D01*
X227209523Y-116980952D01*
X227161904Y-117028571D01*
X227114285Y-117123810D01*
X227114285Y-117361905D01*
X227161904Y-117457143D01*
X227209523Y-117504762D01*
X227304761Y-117552381D01*
X227542857Y-117552381D01*
X227638095Y-117504762D01*
X227685714Y-117457143D01*
X247866666Y-102957143D02*
X247914285Y-103004762D01*
X248057142Y-103052381D01*
X248152380Y-103052381D01*
X248295238Y-103004762D01*
X248390476Y-102909524D01*
X248438095Y-102814286D01*
X248485714Y-102623810D01*
X248485714Y-102480952D01*
X248438095Y-102290476D01*
X248390476Y-102195238D01*
X248295238Y-102100000D01*
X248152380Y-102052381D01*
X248057142Y-102052381D01*
X247914285Y-102100000D01*
X247866666Y-102147619D01*
X247009523Y-102052381D02*
X247200000Y-102052381D01*
X247295238Y-102100000D01*
X247342857Y-102147619D01*
X247438095Y-102290476D01*
X247485714Y-102480952D01*
X247485714Y-102861905D01*
X247438095Y-102957143D01*
X247390476Y-103004762D01*
X247295238Y-103052381D01*
X247104761Y-103052381D01*
X247009523Y-103004762D01*
X246961904Y-102957143D01*
X246914285Y-102861905D01*
X246914285Y-102623810D01*
X246961904Y-102528571D01*
X247009523Y-102480952D01*
X247104761Y-102433333D01*
X247295238Y-102433333D01*
X247390476Y-102480952D01*
X247438095Y-102528571D01*
X247485714Y-102623810D01*
X241566666Y-101557143D02*
X241614285Y-101604762D01*
X241757142Y-101652381D01*
X241852380Y-101652381D01*
X241995238Y-101604762D01*
X242090476Y-101509524D01*
X242138095Y-101414286D01*
X242185714Y-101223810D01*
X242185714Y-101080952D01*
X242138095Y-100890476D01*
X242090476Y-100795238D01*
X241995238Y-100700000D01*
X241852380Y-100652381D01*
X241757142Y-100652381D01*
X241614285Y-100700000D01*
X241566666Y-100747619D01*
X240995238Y-101080952D02*
X241090476Y-101033333D01*
X241138095Y-100985714D01*
X241185714Y-100890476D01*
X241185714Y-100842857D01*
X241138095Y-100747619D01*
X241090476Y-100700000D01*
X240995238Y-100652381D01*
X240804761Y-100652381D01*
X240709523Y-100700000D01*
X240661904Y-100747619D01*
X240614285Y-100842857D01*
X240614285Y-100890476D01*
X240661904Y-100985714D01*
X240709523Y-101033333D01*
X240804761Y-101080952D01*
X240995238Y-101080952D01*
X241090476Y-101128571D01*
X241138095Y-101176190D01*
X241185714Y-101271429D01*
X241185714Y-101461905D01*
X241138095Y-101557143D01*
X241090476Y-101604762D01*
X240995238Y-101652381D01*
X240804761Y-101652381D01*
X240709523Y-101604762D01*
X240661904Y-101557143D01*
X240614285Y-101461905D01*
X240614285Y-101271429D01*
X240661904Y-101176190D01*
X240709523Y-101128571D01*
X240804761Y-101080952D01*
X231266666Y-108252381D02*
X231600000Y-107776190D01*
X231838095Y-108252381D02*
X231838095Y-107252381D01*
X231457142Y-107252381D01*
X231361904Y-107300000D01*
X231314285Y-107347619D01*
X231266666Y-107442857D01*
X231266666Y-107585714D01*
X231314285Y-107680952D01*
X231361904Y-107728571D01*
X231457142Y-107776190D01*
X231838095Y-107776190D01*
X230790476Y-108252381D02*
X230600000Y-108252381D01*
X230504761Y-108204762D01*
X230457142Y-108157143D01*
X230361904Y-108014286D01*
X230314285Y-107823810D01*
X230314285Y-107442857D01*
X230361904Y-107347619D01*
X230409523Y-107300000D01*
X230504761Y-107252381D01*
X230695238Y-107252381D01*
X230790476Y-107300000D01*
X230838095Y-107347619D01*
X230885714Y-107442857D01*
X230885714Y-107680952D01*
X230838095Y-107776190D01*
X230790476Y-107823810D01*
X230695238Y-107871429D01*
X230504761Y-107871429D01*
X230409523Y-107823810D01*
X230361904Y-107776190D01*
X230314285Y-107680952D01*
X205542857Y-105752381D02*
X205876191Y-105276190D01*
X206114286Y-105752381D02*
X206114286Y-104752381D01*
X205733333Y-104752381D01*
X205638095Y-104800000D01*
X205590476Y-104847619D01*
X205542857Y-104942857D01*
X205542857Y-105085714D01*
X205590476Y-105180952D01*
X205638095Y-105228571D01*
X205733333Y-105276190D01*
X206114286Y-105276190D01*
X204590476Y-105752381D02*
X205161905Y-105752381D01*
X204876191Y-105752381D02*
X204876191Y-104752381D01*
X204971429Y-104895238D01*
X205066667Y-104990476D01*
X205161905Y-105038095D01*
X203971429Y-104752381D02*
X203876190Y-104752381D01*
X203780952Y-104800000D01*
X203733333Y-104847619D01*
X203685714Y-104942857D01*
X203638095Y-105133333D01*
X203638095Y-105371429D01*
X203685714Y-105561905D01*
X203733333Y-105657143D01*
X203780952Y-105704762D01*
X203876190Y-105752381D01*
X203971429Y-105752381D01*
X204066667Y-105704762D01*
X204114286Y-105657143D01*
X204161905Y-105561905D01*
X204209524Y-105371429D01*
X204209524Y-105133333D01*
X204161905Y-104942857D01*
X204114286Y-104847619D01*
X204066667Y-104800000D01*
X203971429Y-104752381D01*
X218661905Y-121252381D02*
X218661905Y-122061905D01*
X218614286Y-122157143D01*
X218566667Y-122204762D01*
X218471429Y-122252381D01*
X218280952Y-122252381D01*
X218185714Y-122204762D01*
X218138095Y-122157143D01*
X218090476Y-122061905D01*
X218090476Y-121252381D01*
X217090476Y-122252381D02*
X217661905Y-122252381D01*
X217376191Y-122252381D02*
X217376191Y-121252381D01*
X217471429Y-121395238D01*
X217566667Y-121490476D01*
X217661905Y-121538095D01*
X240661905Y-104452381D02*
X240661905Y-105261905D01*
X240614286Y-105357143D01*
X240566667Y-105404762D01*
X240471429Y-105452381D01*
X240280952Y-105452381D01*
X240185714Y-105404762D01*
X240138095Y-105357143D01*
X240090476Y-105261905D01*
X240090476Y-104452381D01*
X239709524Y-104452381D02*
X239090476Y-104452381D01*
X239423810Y-104833333D01*
X239280952Y-104833333D01*
X239185714Y-104880952D01*
X239138095Y-104928571D01*
X239090476Y-105023810D01*
X239090476Y-105261905D01*
X239138095Y-105357143D01*
X239185714Y-105404762D01*
X239280952Y-105452381D01*
X239566667Y-105452381D01*
X239661905Y-105404762D01*
X239709524Y-105357143D01*
M02*
