G04 #@! TF.FileFunction,Soldermask,Top*
%FSLAX46Y46*%
G04 Gerber Fmt 4.6, Leading zero omitted, Abs format (unit mm)*
G04 Created by KiCad (PCBNEW 4.0.6) date Fri Sep  8 15:05:28 2017*
%MOMM*%
%LPD*%
G01*
G04 APERTURE LIST*
%ADD10C,0.100000*%
%ADD11C,3.400000*%
%ADD12R,1.650000X1.400000*%
%ADD13R,1.150000X1.200000*%
%ADD14R,3.900000X2.000000*%
%ADD15R,1.400000X1.650000*%
%ADD16R,0.900000X1.000000*%
%ADD17R,1.200000X1.150000*%
%ADD18R,2.900000X2.200000*%
%ADD19R,1.200000X1.200000*%
%ADD20R,0.800000X1.750000*%
%ADD21O,1.650000X1.350000*%
%ADD22O,1.400000X1.950000*%
%ADD23O,2.100000X2.100000*%
%ADD24R,2.100000X2.100000*%
%ADD25R,5.400000X5.400000*%
%ADD26R,1.300000X0.900000*%
%ADD27R,0.900000X1.300000*%
%ADD28R,1.850000X1.400000*%
%ADD29R,1.460000X1.050000*%
%ADD30R,1.800000X1.600000*%
%ADD31R,2.127200X2.127200*%
%ADD32O,2.127200X2.127200*%
%ADD33R,0.650000X1.700000*%
%ADD34R,1.700000X0.650000*%
G04 APERTURE END LIST*
D10*
D11*
X242000000Y-117500000D03*
X203000000Y-132000000D03*
D12*
X215200000Y-125800000D03*
X215200000Y-123800000D03*
X222200000Y-125800000D03*
X222200000Y-123800000D03*
D13*
X243400000Y-132950000D03*
X243400000Y-131450000D03*
X210600000Y-104350000D03*
X210600000Y-102850000D03*
D14*
X210000000Y-125300000D03*
X204600000Y-125300000D03*
D13*
X235600000Y-110750000D03*
X235600000Y-109250000D03*
D15*
X224300000Y-108800000D03*
X226300000Y-108800000D03*
X219000000Y-117400000D03*
X217000000Y-117400000D03*
D16*
X231600000Y-103650000D03*
X231600000Y-104750000D03*
X226000000Y-104750000D03*
X226000000Y-103650000D03*
D12*
X233400000Y-111000000D03*
X233400000Y-109000000D03*
D17*
X224550000Y-106800000D03*
X226050000Y-106800000D03*
X230950000Y-122200000D03*
X229450000Y-122200000D03*
D13*
X237400000Y-109250000D03*
X237400000Y-110750000D03*
X220600000Y-119950000D03*
X220600000Y-118450000D03*
D18*
X216400000Y-132200000D03*
X220400000Y-132200000D03*
X212700000Y-132200000D03*
X208700000Y-132200000D03*
D19*
X233200000Y-101800000D03*
X233200000Y-103400000D03*
X235400000Y-101800000D03*
X235400000Y-103400000D03*
X237600000Y-101800000D03*
X237600000Y-103400000D03*
X239800000Y-101800000D03*
X239800000Y-103400000D03*
X219800000Y-107200000D03*
X218200000Y-107200000D03*
D20*
X226100000Y-130850000D03*
X226750000Y-130850000D03*
X227400000Y-130850000D03*
X228050000Y-130850000D03*
X228700000Y-130850000D03*
D21*
X224900000Y-130850000D03*
X229900000Y-130850000D03*
D22*
X223900000Y-133550000D03*
X230900000Y-133550000D03*
D23*
X203860000Y-107300000D03*
X206400000Y-107300000D03*
X208940000Y-107300000D03*
X203860000Y-109840000D03*
X206400000Y-109840000D03*
X208940000Y-109840000D03*
D24*
X208940000Y-120000000D03*
D23*
X206400000Y-120000000D03*
X203860000Y-120000000D03*
X208940000Y-117460000D03*
X206400000Y-117460000D03*
X203860000Y-117460000D03*
X208940000Y-114920000D03*
X206400000Y-114920000D03*
X203860000Y-114920000D03*
X208940000Y-112380000D03*
X206400000Y-112380000D03*
X203860000Y-112380000D03*
D24*
X243000000Y-125600000D03*
D23*
X240460000Y-125600000D03*
X237920000Y-125600000D03*
X235380000Y-125600000D03*
X232840000Y-125600000D03*
D25*
X260800000Y-117400000D03*
X260800000Y-130000000D03*
X260800000Y-123700000D03*
X260800000Y-111100000D03*
X260800000Y-104800000D03*
D26*
X243400000Y-128650000D03*
X243400000Y-130150000D03*
X228000000Y-124450000D03*
X228000000Y-125950000D03*
X226200000Y-124450000D03*
X226200000Y-125950000D03*
X212400000Y-102850000D03*
X212400000Y-104350000D03*
X233200000Y-106550000D03*
X233200000Y-105050000D03*
X235400000Y-106550000D03*
X235400000Y-105050000D03*
X237600000Y-106550000D03*
X237600000Y-105050000D03*
X239800000Y-106550000D03*
X239800000Y-105050000D03*
D27*
X214650000Y-107200000D03*
X216150000Y-107200000D03*
D26*
X242000000Y-106750000D03*
X242000000Y-105250000D03*
X243800000Y-106750000D03*
X243800000Y-105250000D03*
D27*
X219150000Y-115600000D03*
X217650000Y-115600000D03*
D28*
X220375000Y-102650000D03*
X215225000Y-102650000D03*
X215225000Y-100950000D03*
X220375000Y-100950000D03*
X235225000Y-132350000D03*
X240375000Y-132350000D03*
X240375000Y-134050000D03*
X235225000Y-134050000D03*
D29*
X217500000Y-123850000D03*
X217500000Y-124800000D03*
X217500000Y-125750000D03*
X219700000Y-125750000D03*
X219700000Y-123850000D03*
D30*
X229900000Y-103350000D03*
X227700000Y-103350000D03*
X227700000Y-105050000D03*
X229900000Y-105050000D03*
D31*
X249800000Y-106000000D03*
D32*
X252340000Y-106000000D03*
X249800000Y-108540000D03*
X252340000Y-108540000D03*
X249800000Y-111080000D03*
X252340000Y-111080000D03*
X249800000Y-113620000D03*
X252340000Y-113620000D03*
X249800000Y-116160000D03*
X252340000Y-116160000D03*
X249800000Y-118700000D03*
X252340000Y-118700000D03*
X249800000Y-121240000D03*
X252340000Y-121240000D03*
X249800000Y-123780000D03*
X252340000Y-123780000D03*
X249800000Y-126320000D03*
X252340000Y-126320000D03*
X249800000Y-128860000D03*
X252340000Y-128860000D03*
D33*
X229550000Y-111450000D03*
X229050000Y-111450000D03*
X228550000Y-111450000D03*
X228050000Y-111450000D03*
X227550000Y-111450000D03*
X227050000Y-111450000D03*
X226550000Y-111450000D03*
X226050000Y-111450000D03*
X225550000Y-111450000D03*
X225050000Y-111450000D03*
X224550000Y-111450000D03*
X224050000Y-111450000D03*
D34*
X222450000Y-113050000D03*
X222450000Y-113550000D03*
X222450000Y-114050000D03*
X222450000Y-114550000D03*
X222450000Y-115050000D03*
X222450000Y-115550000D03*
X222450000Y-116050000D03*
X222450000Y-116550000D03*
X222450000Y-117050000D03*
X222450000Y-117550000D03*
X222450000Y-118050000D03*
X222450000Y-118550000D03*
D33*
X224050000Y-120150000D03*
X224550000Y-120150000D03*
X225050000Y-120150000D03*
X225550000Y-120150000D03*
X226050000Y-120150000D03*
X226550000Y-120150000D03*
X227050000Y-120150000D03*
X227550000Y-120150000D03*
X228050000Y-120150000D03*
X228550000Y-120150000D03*
X229050000Y-120150000D03*
X229550000Y-120150000D03*
D34*
X231150000Y-118550000D03*
X231150000Y-118050000D03*
X231150000Y-117550000D03*
X231150000Y-117050000D03*
X231150000Y-116550000D03*
X231150000Y-116050000D03*
X231150000Y-115550000D03*
X231150000Y-115050000D03*
X231150000Y-114550000D03*
X231150000Y-114050000D03*
X231150000Y-113550000D03*
X231150000Y-113050000D03*
D11*
X203000000Y-103000000D03*
M02*
