M48
METRIC,TZ
T1C0.400
T2C0.500
T3C0.550
T4C1.000
T5C1.016
%
G90
G05
T1
X213600Y-107200
X215000Y-117800
X217400Y-101300
X217500Y-128100
X221200Y-107200
X223900Y-126200
X224600Y-121600
X224800Y-122600
X226000Y-113200
X226100Y-105800
X226600Y-114000
X227200Y-118800
X227400Y-115000
X228200Y-115400
X228200Y-118200
X228800Y-116000
X230200Y-124100
X230300Y-101800
X231300Y-123400
X232200Y-121000
X234000Y-119600
X234600Y-113800
X234800Y-120200
X234800Y-121000
X235600Y-112600
X236600Y-114000
X237400Y-112600
X238600Y-109000
X238700Y-102600
X239600Y-107400
X240000Y-112400
X240100Y-113300
X242000Y-107800
X243100Y-101700
X243200Y-107800
X245600Y-105000
T4
X203860Y-107300
X203860Y-109840
X203860Y-112380
X203860Y-114920
X203860Y-117460
X203860Y-120000
X206400Y-107300
X206400Y-109840
X206400Y-112380
X206400Y-114920
X206400Y-117460
X206400Y-120000
X208940Y-107300
X208940Y-109840
X208940Y-112380
X208940Y-114920
X208940Y-117460
X208940Y-120000
X232840Y-125600
X235380Y-125600
X237920Y-125600
X240460Y-125600
X243000Y-125600
T5
X249800Y-106000
X249800Y-108540
X249800Y-111080
X249800Y-113620
X249800Y-116160
X249800Y-118700
X249800Y-121240
X249800Y-123780
X249800Y-126320
X249800Y-128860
X252340Y-106000
X252340Y-108540
X252340Y-111080
X252340Y-113620
X252340Y-116160
X252340Y-118700
X252340Y-121240
X252340Y-123780
X252340Y-126320
X252340Y-128860
T2
X223900Y-133875G85X223900Y-133225
G05
X230900Y-133875G85X230900Y-133225
G05
T3
X224750Y-130850G85X225050Y-130850
G05
X229750Y-130850G85X230050Y-130850
G05
T0
M30
